<?xml version="1.0" standalone="no"?><!DOCTYPE svg PUBLIC "-//W3C//DTD SVG 1.1//EN" "http://www.w3.org/Graphics/SVG/1.1/DTD/svg11.dtd"><svg xmlns:xlink="http://www.w3.org/1999/xlink" version="1.1" style="font-family:metacomppro-normal;font-size:12px;" xmlns="http://www.w3.org/2000/svg" width="600" height="400"><desc>Created with Highcharts 4.2.7</desc><defs><clipPath id="highcharts-34"><rect x="0" y="0" width="515" height="261"></rect></clipPath></defs><rect x="0" y="0" width="600" height="400" fill="#FFFFFF" class=" highcharts-background"></rect><rect x="75" y="56" width="515" height="261" fill="#f0f1f1"></rect><g class="highcharts-grid"></g><g class="highcharts-grid"><path fill="none" d="M 75 317.5 L 590 317.5" stroke="#D8D8D8" stroke-width="1" opacity="1"></path><path fill="none" d="M 75 252.5 L 590 252.5" stroke="#D8D8D8" stroke-width="1" opacity="1"></path><path fill="none" d="M 75 187.5 L 590 187.5" stroke="#D8D8D8" stroke-width="1" opacity="1"></path><path fill="none" d="M 75 121.5 L 590 121.5" stroke="#D8D8D8" stroke-width="1" opacity="1"></path><path fill="none" d="M 75 55.5 L 590 55.5" stroke="#D8D8D8" stroke-width="1" opacity="1"></path></g><g class="highcharts-axis"><path fill="none" d="M 114.5 317 L 114.5 327" stroke="#C0D0E0" stroke-width="1" opacity="1"></path><path fill="none" d="M 153.5 317 L 153.5 327" stroke="#C0D0E0" stroke-width="1" opacity="1"></path><path fill="none" d="M 193.5 317 L 193.5 327" stroke="#C0D0E0" stroke-width="1" opacity="1"></path><path fill="none" d="M 232.5 317 L 232.5 327" stroke="#C0D0E0" stroke-width="1" opacity="1"></path><path fill="none" d="M 272.5 317 L 272.5 327" stroke="#C0D0E0" stroke-width="1" opacity="1"></path><path fill="none" d="M 312.5 317 L 312.5 327" stroke="#C0D0E0" stroke-width="1" opacity="1"></path><path fill="none" d="M 351.5 317 L 351.5 327" stroke="#C0D0E0" stroke-width="1" opacity="1"></path><path fill="none" d="M 391.5 317 L 391.5 327" stroke="#C0D0E0" stroke-width="1" opacity="1"></path><path fill="none" d="M 431.5 317 L 431.5 327" stroke="#C0D0E0" stroke-width="1" opacity="1"></path><path fill="none" d="M 470.5 317 L 470.5 327" stroke="#C0D0E0" stroke-width="1" opacity="1"></path><path fill="none" d="M 510.5 317 L 510.5 327" stroke="#C0D0E0" stroke-width="1" opacity="1"></path><path fill="none" d="M 549.5 317 L 549.5 327" stroke="#C0D0E0" stroke-width="1" opacity="1"></path><path fill="none" d="M 590.5 317 L 590.5 327" stroke="#C0D0E0" stroke-width="1" opacity="1"></path><path fill="none" d="M 74.5 317 L 74.5 327" stroke="#C0D0E0" stroke-width="1" opacity="1"></path><path fill="none" d="M 75 317.5 L 590 317.5" stroke="#C0D0E0" stroke-width="1"></path></g><g class="highcharts-axis"><text x="22.38636589050293" text-anchor="middle" transform="translate(0,0) rotate(270 22.38636589050293 186.5)" class=" highcharts-yaxis-title" style="color:#707070;fill:#707070;" y="186.5"><tspan>Tausend Personen</tspan></text></g><g class="highcharts-series-group"><g class="highcharts-series highcharts-series-0" transform="translate(75,56) scale(1 1)" clip-path="url(#highcharts-34)"><rect x="9.5" y="16.5" width="20" height="13" stroke="#FFFFFF" stroke-width="1" fill="#61b931" rx="0" ry="0"></rect><rect x="49.5" y="55.5" width="20" height="13" stroke="#FFFFFF" stroke-width="1" fill="#61b931" rx="0" ry="0"></rect><rect x="89.5" y="77.5" width="20" height="11" stroke="#FFFFFF" stroke-width="1" fill="#61b931" rx="0" ry="0"></rect><rect x="128.5" y="89.5" width="20" height="11" stroke="#FFFFFF" stroke-width="1" fill="#61b931" rx="0" ry="0"></rect><rect x="168.5" y="73.5" width="20" height="40" stroke="#FFFFFF" stroke-width="1" fill="#61b931" rx="0" ry="0"></rect><rect x="207.5" y="88.5" width="20" height="36" stroke="#FFFFFF" stroke-width="1" fill="#61b931" rx="0" ry="0"></rect><rect x="247.5" y="91.5" width="20" height="38" stroke="#FFFFFF" stroke-width="1" fill="#61b931" rx="0" ry="0"></rect><rect x="287.5" y="94.5" width="20" height="40" stroke="#FFFFFF" stroke-width="1" fill="#61b931" rx="0" ry="0"></rect><rect x="326.5" y="98.5" width="20" height="44" stroke="#FFFFFF" stroke-width="1" fill="#61b931" rx="0" ry="0"></rect><rect x="366.5" y="120.5" width="20" height="43" stroke="#FFFFFF" stroke-width="1" fill="#61b931" rx="0" ry="0"></rect><rect x="405.5" y="128.5" width="20" height="41" stroke="#FFFFFF" stroke-width="1" fill="#61b931" rx="0" ry="0"></rect><rect x="445.5" y="138.5" width="20" height="38" stroke="#FFFFFF" stroke-width="1" fill="#61b931" rx="0" ry="0"></rect><rect x="485.5" y="139.5" width="20" height="35" stroke="#FFFFFF" stroke-width="1" fill="#61b931" rx="0" ry="0"></rect></g><g class="highcharts-markers highcharts-series-0" transform="translate(75,56) scale(1 1)" clip-path="none"></g><g class="highcharts-series highcharts-series-1" transform="translate(75,56) scale(1 1)" clip-path="url(#highcharts-34)"><rect x="9.5" y="29.5" width="20" height="53" stroke="#FFFFFF" stroke-width="1" fill="#0b90d5" rx="0" ry="0"></rect><rect x="49.5" y="68.5" width="20" height="27" stroke="#FFFFFF" stroke-width="1" fill="#0b90d5" rx="0" ry="0"></rect><rect x="89.5" y="88.5" width="20" height="23" stroke="#FFFFFF" stroke-width="1" fill="#0b90d5" rx="0" ry="0"></rect><rect x="128.5" y="100.5" width="20" height="25" stroke="#FFFFFF" stroke-width="1" fill="#0b90d5" rx="0" ry="0"></rect><rect x="168.5" y="113.5" width="20" height="25" stroke="#FFFFFF" stroke-width="1" fill="#0b90d5" rx="0" ry="0"></rect><rect x="207.5" y="124.5" width="20" height="25" stroke="#FFFFFF" stroke-width="1" fill="#0b90d5" rx="0" ry="0"></rect><rect x="247.5" y="129.5" width="20" height="25" stroke="#FFFFFF" stroke-width="1" fill="#0b90d5" rx="0" ry="0"></rect><rect x="287.5" y="134.5" width="20" height="25" stroke="#FFFFFF" stroke-width="1" fill="#0b90d5" rx="0" ry="0"></rect><rect x="326.5" y="142.5" width="20" height="24" stroke="#FFFFFF" stroke-width="1" fill="#0b90d5" rx="0" ry="0"></rect><rect x="366.5" y="163.5" width="20" height="25" stroke="#FFFFFF" stroke-width="1" fill="#0b90d5" rx="0" ry="0"></rect><rect x="405.5" y="169.5" width="20" height="26" stroke="#FFFFFF" stroke-width="1" fill="#0b90d5" rx="0" ry="0"></rect><rect x="445.5" y="176.5" width="20" height="26" stroke="#FFFFFF" stroke-width="1" fill="#0b90d5" rx="0" ry="0"></rect><rect x="485.5" y="174.5" width="20" height="30" stroke="#FFFFFF" stroke-width="1" fill="#0b90d5" rx="0" ry="0"></rect></g><g class="highcharts-markers highcharts-series-1" transform="translate(75,56) scale(1 1)" clip-path="none"></g><g class="highcharts-series highcharts-series-2" transform="translate(75,56) scale(1 1)" clip-path="url(#highcharts-34)"><rect x="9.5" y="82.5" width="20" height="179" stroke="#FFFFFF" stroke-width="1" fill="#0a7726" rx="0" ry="0"></rect><rect x="49.5" y="95.5" width="20" height="166" stroke="#FFFFFF" stroke-width="1" fill="#0a7726" rx="0" ry="0"></rect><rect x="89.5" y="111.5" width="20" height="150" stroke="#FFFFFF" stroke-width="1" fill="#0a7726" rx="0" ry="0"></rect><rect x="128.5" y="125.5" width="20" height="136" stroke="#FFFFFF" stroke-width="1" fill="#0a7726" rx="0" ry="0"></rect><rect x="168.5" y="138.5" width="20" height="123" stroke="#FFFFFF" stroke-width="1" fill="#0a7726" rx="0" ry="0"></rect><rect x="207.5" y="149.5" width="20" height="112" stroke="#FFFFFF" stroke-width="1" fill="#0a7726" rx="0" ry="0"></rect><rect x="247.5" y="154.5" width="20" height="107" stroke="#FFFFFF" stroke-width="1" fill="#0a7726" rx="0" ry="0"></rect><rect x="287.5" y="159.5" width="20" height="102" stroke="#FFFFFF" stroke-width="1" fill="#0a7726" rx="0" ry="0"></rect><rect x="326.5" y="166.5" width="20" height="95" stroke="#FFFFFF" stroke-width="1" fill="#0a7726" rx="0" ry="0"></rect><rect x="366.5" y="188.5" width="20" height="73" stroke="#FFFFFF" stroke-width="1" fill="#0a7726" rx="0" ry="0"></rect><rect x="405.5" y="195.5" width="20" height="66" stroke="#FFFFFF" stroke-width="1" fill="#0a7726" rx="0" ry="0"></rect><rect x="445.5" y="202.5" width="20" height="59" stroke="#FFFFFF" stroke-width="1" fill="#0a7726" rx="0" ry="0"></rect><rect x="485.5" y="204.5" width="20" height="57" stroke="#FFFFFF" stroke-width="1" fill="#0a7726" rx="0" ry="0"></rect></g><g class="highcharts-markers highcharts-series-2" transform="translate(75,56) scale(1 1)" clip-path="none"></g></g><text x="10" text-anchor="start" class="highcharts-title" style="color:#333333;font-size:18px;font-family:metaserifcomp-medium;fill:#333333;width:536px;" y="24"><tspan>Arbeitskräfte in der Landwirtschaft</tspan></text><text x="10" text-anchor="start" class="highcharts-subtitle" style="color:#555555;fill:#555555;width:536px;" y="42"><tspan>Anzahl der Arbeitskräfte (AK) nach Art der Beschäftigung</tspan></text><g class="highcharts-legend" transform="translate(67,348)"><g><g><g class="highcharts-legend-item" transform="translate(8,3)"><text x="21" style="color:#333333;font-size:12px;font-weight:bold;cursor:pointer;fill:#333333;" text-anchor="start" y="15"><tspan>Familien-AK (inkl. Betriebsinhaber)</tspan></text><rect x="0" y="4" width="16" height="12" fill="#61b931"></rect></g><g class="highcharts-legend-item" transform="translate(229.88067626953125,3)"><text x="21" y="15" style="color:#333333;font-size:12px;font-weight:bold;cursor:pointer;fill:#333333;" text-anchor="start"><tspan>Familienfremde AK (ständig beschäftigt)</tspan></text><rect x="0" y="4" width="16" height="12" fill="#0b90d5"></rect></g><g class="highcharts-legend-item" transform="translate(8,16)"><text x="21" y="15" style="color:#333333;font-size:12px;font-weight:bold;cursor:pointer;fill:#333333;" text-anchor="start"><tspan>Familienfremde AK (nicht ständig beschäftigt)</tspan></text><rect x="0" y="4" width="16" height="12" fill="#0a7726"></rect></g></g></g></g><g class="highcharts-axis-labels highcharts-xaxis-labels"><text x="94.8076923076923" style="color:#606060;cursor:default;font-size:11px;fill:#606060;" text-anchor="middle" transform="translate(0,0)" y="336" opacity="1">1991</text><text x="134.4230769230769" style="color:#606060;cursor:default;font-size:11px;fill:#606060;" text-anchor="middle" transform="translate(0,0)" y="336" opacity="1">1993</text><text x="174.03846153846155" style="color:#606060;cursor:default;font-size:11px;fill:#606060;" text-anchor="middle" transform="translate(0,0)" y="336" opacity="1">1995</text><text x="213.65384615384613" style="color:#606060;cursor:default;font-size:11px;fill:#606060;" text-anchor="middle" transform="translate(0,0)" y="336" opacity="1">1997</text><text x="253.26923076923077" style="color:#606060;cursor:default;font-size:11px;fill:#606060;" text-anchor="middle" transform="translate(0,0)" y="336" opacity="1">1999</text><text x="292.88461538461536" style="color:#606060;cursor:default;font-size:11px;fill:#606060;" text-anchor="middle" transform="translate(0,0)" y="336" opacity="1">2001</text><text x="332.5" style="color:#606060;cursor:default;font-size:11px;fill:#606060;" text-anchor="middle" transform="translate(0,0)" y="336" opacity="1">2003</text><text x="372.1153846153846" style="color:#606060;cursor:default;font-size:11px;fill:#606060;" text-anchor="middle" transform="translate(0,0)" y="336" opacity="1">2005</text><text x="411.7307692307692" style="color:#606060;cursor:default;font-size:11px;fill:#606060;" text-anchor="middle" transform="translate(0,0)" y="336" opacity="1">2007</text><text x="451.3461538461538" style="color:#606060;cursor:default;font-size:11px;fill:#606060;" text-anchor="middle" transform="translate(0,0)" y="336" opacity="1">2010</text><text x="490.96153846153845" style="color:#606060;cursor:default;font-size:11px;fill:#606060;" text-anchor="middle" transform="translate(0,0)" y="336" opacity="1">2013</text><text x="530.5769230769231" style="color:#606060;cursor:default;font-size:11px;fill:#606060;" text-anchor="middle" transform="translate(0,0)" y="336" opacity="1">2016</text><text x="570.1923076923077" style="color:#606060;cursor:default;font-size:11px;fill:#606060;" text-anchor="middle" transform="translate(0,0)" y="336" opacity="1">2020</text></g><g class="highcharts-axis-labels highcharts-yaxis-labels"><text x="60" style="color:#606060;cursor:default;font-size:11px;fill:#606060;width:188px;text-overflow:clip;" text-anchor="end" transform="translate(0,0)" y="323" opacity="1"><tspan>0</tspan></text><text x="60" style="color:#606060;cursor:default;font-size:11px;fill:#606060;width:188px;text-overflow:clip;" text-anchor="end" transform="translate(0,0)" y="257" opacity="1"><tspan>500</tspan></text><text x="60" style="color:#606060;cursor:default;font-size:11px;fill:#606060;width:188px;text-overflow:clip;" text-anchor="end" transform="translate(0,0)" y="192" opacity="1"><tspan>1 000</tspan></text><text x="60" style="color:#606060;cursor:default;font-size:11px;fill:#606060;width:188px;text-overflow:clip;" text-anchor="end" transform="translate(0,0)" y="127" opacity="1"><tspan>1 500</tspan></text><text x="60" style="color:#606060;cursor:default;font-size:11px;fill:#606060;width:188px;text-overflow:clip;" text-anchor="end" transform="translate(0,0)" y="62" opacity="1"><tspan>2 000</tspan></text></g><g class="highcharts-tooltip" display="none" style="cursor:default;padding:0;pointer-events:none;white-space:nowrap;" transform="translate(0,0)"><path fill="none" d="M 3.5 0.5 L 13.5 0.5 C 16.5 0.5 16.5 0.5 16.5 3.5 L 16.5 13.5 C 16.5 16.5 16.5 16.5 13.5 16.5 L 3.5 16.5 C 0.5 16.5 0.5 16.5 0.5 13.5 L 0.5 3.5 C 0.5 0.5 0.5 0.5 3.5 0.5"  stroke="black" stroke-opacity="0.049999999999999996" stroke-width="5" transform="translate(1, 1)"></path><path fill="none" d="M 3.5 0.5 L 13.5 0.5 C 16.5 0.5 16.5 0.5 16.5 3.5 L 16.5 13.5 C 16.5 16.5 16.5 16.5 13.5 16.5 L 3.5 16.5 C 0.5 16.5 0.5 16.5 0.5 13.5 L 0.5 3.5 C 0.5 0.5 0.5 0.5 3.5 0.5"  stroke="black" stroke-opacity="0.09999999999999999" stroke-width="3" transform="translate(1, 1)"></path><path fill="none" d="M 3.5 0.5 L 13.5 0.5 C 16.5 0.5 16.5 0.5 16.5 3.5 L 16.5 13.5 C 16.5 16.5 16.5 16.5 13.5 16.5 L 3.5 16.5 C 0.5 16.5 0.5 16.5 0.5 13.5 L 0.5 3.5 C 0.5 0.5 0.5 0.5 3.5 0.5"  stroke="black" stroke-opacity="0.15" stroke-width="1" transform="translate(1, 1)"></path><path fill="rgb(249, 249, 249)" fill-opacity=" .85" d="M 3.5 0.5 L 13.5 0.5 C 16.5 0.5 16.5 0.5 16.5 3.5 L 16.5 13.5 C 16.5 16.5 16.5 16.5 13.5 16.5 L 3.5 16.5 C 0.5 16.5 0.5 16.5 0.5 13.5 L 0.5 3.5 C 0.5 0.5 0.5 0.5 3.5 0.5"></path><text x="8" style="font-size:12px;color:#333333;fill:#333333;" y="20"></text></g><text x="590" text-anchor="end" style="cursor:pointer;color:#909090;font-size:9px;fill:#909090;" y="395"><tspan>Quelle: Umweltbundesamt mit Daten des Bundesministeriums für Landwirtschaft und Ernährung sowie des Statistischen Bundesamtes</tspan></text></svg>